<svg width="500" height="500" viewBox="0 0 500 500" fill="none" xmlns="http://www.w3.org/2000/svg">
<rect width="500" height="500" fill="white"/>
<path d="M456.922 238.394H457.381C469.101 238.63 478.5 248.178 478.5 259.886V343.902V343.909C478.506 349.826 476.102 355.198 472.2 359.093C468.278 362.995 462.903 365.398 456.931 365.398C445.004 365.398 435.369 355.756 435.378 343.907V343.902V327.496V312.366L424.403 322.782L280.368 459.482L280.31 459.537L280.253 459.594C251.083 488.686 206.925 487.535 174.637 455.321L174.582 455.267L174.525 455.213L25.0565 313.06C22.108 307.855 21.1869 303.463 21.5903 299.714C22.0087 295.827 23.9407 291.792 28.166 287.584C32.1857 283.581 36.4992 281.631 41.2641 281.311C46.0035 280.994 51.747 282.259 58.6529 285.733L205.202 424.976C207.125 426.885 213.02 432.347 220.823 435.31C224.843 436.837 229.637 437.805 234.775 437.051C239.985 436.288 245.075 433.82 249.678 429.25L393.657 292.593L405.485 281.367L389.178 281.379L372.714 281.39C372.713 281.39 372.711 281.39 372.71 281.39C372.71 281.39 372.71 281.39 372.709 281.39C360.791 281.388 351.152 271.752 351.161 259.895V259.885C351.152 248.039 360.794 238.391 372.724 238.394H372.726H456.922Z" fill="#5A55D2" stroke="white" stroke-width="13"/>
<path d="M43.0782 261.101H42.6237C31.1766 260.868 22 251.542 22 240.109V156.093L22 156.085C21.9938 150.309 24.3406 145.063 28.1519 141.257C31.9837 137.444 37.2344 135.097 43.0692 135.097C54.7205 135.097 64.1312 144.517 64.1224 156.087V156.093V172.499V188.793L75.9412 177.576L219.976 40.876L220.039 40.8163L220.1 40.755C249.051 11.8815 292.891 12.9835 325.01 45.0276L325.07 45.0867L325.13 45.1444L474.545 187.246C477.427 192.356 478.3 196.624 477.913 200.228C477.509 203.975 475.645 207.909 471.481 212.057C467.539 215.983 463.336 217.875 458.702 218.185C454.093 218.494 448.461 217.271 441.638 213.849L295.146 74.6597C293.202 72.7304 287.25 67.216 279.355 64.2172C275.279 62.6692 270.396 61.6801 265.152 62.4489C259.831 63.2292 254.646 65.7488 249.974 70.3863L105.999 207.039L93.2613 219.129L110.823 219.116L127.286 219.105C127.287 219.105 127.289 219.105 127.29 219.105C127.291 219.105 127.291 219.105 127.291 219.105C138.934 219.107 148.348 228.521 148.339 240.099V240.11C148.348 251.679 138.931 261.104 127.276 261.101H127.274H43.0782Z" fill="#F23985" stroke="white" stroke-width="14"/>
<path d="M178.636 294.544L171.068 314.324C170.036 317.076 168.603 319.255 166.768 320.86C164.933 322.58 162.239 323.44 158.684 323.44C155.129 323.44 152.263 322.465 150.084 320.516C148.02 318.567 147.791 315.241 149.396 310.54L184.828 207.168C185.401 205.333 186.605 203.728 188.44 202.352C190.389 200.861 192.969 200.116 196.18 200.116C199.391 200.116 201.913 200.861 203.748 202.352C205.697 203.728 206.959 205.333 207.532 207.168L243.308 310.884C244.684 315.241 244.283 318.395 242.104 320.344C240.04 322.408 237.231 323.44 233.676 323.44C230.121 323.555 227.484 322.752 225.764 321.032C224.044 319.427 222.725 317.477 221.808 315.184L213.552 294.544H178.636ZM209.424 275.108L196.18 232.452L182.936 275.108H209.424ZM324.368 250.168C327.694 250.168 330.331 250.971 332.28 252.576C333.886 254.181 334.688 256.647 334.688 259.972C334.688 263.412 333.886 265.877 332.28 267.368C330.675 268.744 328.038 269.432 324.368 269.432H287.904V316.388C287.904 317.993 286.987 319.541 285.152 321.032C283.432 322.637 280.566 323.44 276.552 323.44C272.539 323.44 269.672 322.637 267.952 321.032C266.347 319.541 265.544 317.993 265.544 316.388V211.296C265.544 207.741 266.462 205.276 268.296 203.9C270.131 202.524 272.883 201.836 276.552 201.836H329.7C333.026 201.836 335.491 202.581 337.096 204.072C338.816 205.448 339.734 207.913 339.848 211.468C339.963 215.023 339.103 217.545 337.268 219.036C335.434 220.412 332.854 221.1 329.528 221.1H287.904V250.168H324.368Z" fill="#5A55D2"/>
<path d="M178.636 294.544V291.544H176.572L175.834 293.472L178.636 294.544ZM171.068 314.324L168.266 313.252L168.263 313.261L168.259 313.271L171.068 314.324ZM166.768 320.86L164.792 318.602L164.754 318.636L164.716 318.671L166.768 320.86ZM150.084 320.516L148.024 322.697L148.054 322.725L148.084 322.752L150.084 320.516ZM149.396 310.54L146.558 309.567L146.557 309.571L149.396 310.54ZM184.828 207.168L187.666 208.141L187.679 208.102L187.691 208.063L184.828 207.168ZM188.44 202.352L190.24 204.752L190.251 204.744L190.262 204.735L188.44 202.352ZM203.748 202.352L201.856 204.68L201.935 204.744L202.018 204.803L203.748 202.352ZM207.532 207.168L204.669 208.063L204.682 208.105L204.696 208.146L207.532 207.168ZM243.308 310.884L246.169 309.981L246.157 309.943L246.144 309.906L243.308 310.884ZM242.104 320.344L240.104 318.108L240.042 318.164L239.983 318.223L242.104 320.344ZM233.676 323.44V320.44H233.628L233.579 320.442L233.676 323.44ZM225.764 321.032L227.885 318.911L227.849 318.874L227.811 318.839L225.764 321.032ZM221.808 315.184L219.023 316.298L219.023 316.298L221.808 315.184ZM213.552 294.544L216.337 293.43L215.583 291.544H213.552V294.544ZM209.424 275.108V278.108H213.497L212.289 274.218L209.424 275.108ZM196.18 232.452L199.045 231.562L196.18 222.335L193.315 231.562L196.18 232.452ZM182.936 275.108L180.071 274.218L178.863 278.108H182.936V275.108ZM175.834 293.472L168.266 313.252L173.87 315.396L181.438 295.616L175.834 293.472ZM168.259 313.271C167.366 315.653 166.185 317.384 164.792 318.602L168.744 323.118C171.021 321.125 172.706 318.499 173.877 315.377L168.259 313.271ZM164.716 318.671C163.632 319.688 161.792 320.44 158.684 320.44V326.44C162.685 326.44 166.235 325.472 168.82 323.049L164.716 318.671ZM158.684 320.44C155.7 320.44 153.6 319.636 152.084 318.28L148.084 322.752C150.925 325.294 154.558 326.44 158.684 326.44V320.44ZM152.144 318.335C151.451 317.68 150.708 315.981 152.235 311.509L146.557 309.571C144.873 314.501 144.589 319.453 148.024 322.697L152.144 318.335ZM152.234 311.513L187.666 208.141L181.99 206.195L146.558 309.567L152.234 311.513ZM187.691 208.063C188.043 206.938 188.809 205.825 190.24 204.752L186.64 199.952C184.401 201.631 182.76 203.729 181.965 206.273L187.691 208.063ZM190.262 204.735C191.547 203.753 193.425 203.116 196.18 203.116V197.116C192.514 197.116 189.232 197.97 186.618 199.969L190.262 204.735ZM196.18 203.116C198.948 203.116 200.72 203.757 201.856 204.68L205.64 200.024C203.106 197.965 199.834 197.116 196.18 197.116V203.116ZM202.018 204.803C203.561 205.892 204.335 206.996 204.669 208.063L210.395 206.273C209.582 203.67 207.833 201.564 205.478 199.901L202.018 204.803ZM204.696 208.146L240.472 311.862L246.144 309.906L210.368 206.19L204.696 208.146ZM240.447 311.787C241.692 315.728 240.96 317.342 240.104 318.108L244.104 322.58C247.606 319.447 247.676 314.755 246.169 309.981L240.447 311.787ZM239.983 318.223C238.6 319.606 236.62 320.44 233.676 320.44V326.44C237.842 326.44 241.48 325.21 244.225 322.465L239.983 318.223ZM233.579 320.442C230.467 320.542 228.793 319.818 227.885 318.911L223.643 323.153C226.175 325.686 229.775 326.567 233.773 326.438L233.579 320.442ZM227.811 318.839C226.43 317.549 225.355 315.974 224.593 314.07L219.023 316.298C220.095 318.98 221.658 321.304 223.717 323.225L227.811 318.839ZM224.593 314.07L216.337 293.43L210.767 295.658L219.023 316.298L224.593 314.07ZM213.552 291.544H178.636V297.544H213.552V291.544ZM212.289 274.218L199.045 231.562L193.315 233.342L206.559 275.998L212.289 274.218ZM193.315 231.562L180.071 274.218L185.801 275.998L199.045 233.342L193.315 231.562ZM182.936 278.108H209.424V272.108H182.936V278.108ZM332.28 252.576L334.402 250.455L334.299 250.352L334.187 250.26L332.28 252.576ZM332.28 267.368L334.233 269.646L334.278 269.607L334.322 269.566L332.28 267.368ZM287.904 269.432V266.432H284.904V269.432H287.904ZM285.152 321.032L283.261 318.704L283.181 318.769L283.105 318.839L285.152 321.032ZM267.952 321.032L269.999 318.839L269.994 318.834L267.952 321.032ZM268.296 203.9L270.096 206.3L270.096 206.3L268.296 203.9ZM337.096 204.072L335.055 206.27L335.136 206.346L335.222 206.415L337.096 204.072ZM339.848 211.468L336.85 211.565L336.85 211.565L339.848 211.468ZM337.268 219.036L339.068 221.436L339.115 221.401L339.16 221.364L337.268 219.036ZM287.904 221.1V218.1H284.904V221.1H287.904ZM287.904 250.168H284.904V253.168H287.904V250.168ZM324.368 253.168C327.22 253.168 329.111 253.852 330.373 254.892L334.187 250.26C331.551 248.089 328.167 247.168 324.368 247.168V253.168ZM330.159 254.697C330.986 255.524 331.688 257.073 331.688 259.972H337.688C337.688 256.22 336.786 252.839 334.402 250.455L330.159 254.697ZM331.688 259.972C331.688 263.045 330.959 264.501 330.239 265.17L334.322 269.566C336.812 267.254 337.688 263.779 337.688 259.972H331.688ZM330.328 265.09C329.544 265.762 327.8 266.432 324.368 266.432V272.432C328.275 272.432 331.806 271.726 334.233 269.646L330.328 265.09ZM324.368 266.432H287.904V272.432H324.368V266.432ZM284.904 269.432V316.388H290.904V269.432H284.904ZM284.904 316.388C284.904 316.727 284.735 317.505 283.261 318.704L287.044 323.36C289.239 321.577 290.904 319.26 290.904 316.388H284.904ZM283.105 318.839C282.221 319.665 280.303 320.44 276.552 320.44V326.44C280.829 326.44 284.644 325.61 287.199 323.225L283.105 318.839ZM276.552 320.44C272.802 320.44 270.884 319.665 269.999 318.839L265.905 323.225C268.461 325.61 272.276 326.44 276.552 326.44V320.44ZM269.994 318.834C268.769 317.696 268.544 316.889 268.544 316.388H262.544C262.544 319.098 263.925 321.387 265.911 323.23L269.994 318.834ZM268.544 316.388V211.296H262.544V316.388H268.544ZM268.544 211.296C268.544 208.155 269.359 206.853 270.096 206.3L266.496 201.5C263.564 203.699 262.544 207.328 262.544 211.296H268.544ZM270.096 206.3C271.183 205.485 273.172 204.836 276.552 204.836V198.836C272.595 198.836 269.079 199.563 266.496 201.5L270.096 206.3ZM276.552 204.836H329.7V198.836H276.552V204.836ZM329.7 204.836C332.65 204.836 334.232 205.506 335.055 206.27L339.138 201.874C336.75 199.656 333.401 198.836 329.7 198.836V204.836ZM335.222 206.415C335.93 206.981 336.746 208.357 336.85 211.565L342.847 211.371C342.721 207.469 341.703 203.915 338.97 201.729L335.222 206.415ZM336.85 211.565C336.95 214.671 336.174 216.06 335.377 216.708L339.16 221.364C342.032 219.031 342.976 215.375 342.847 211.371L336.85 211.565ZM335.468 216.636C334.34 217.482 332.486 218.1 329.528 218.1V224.1C333.222 224.1 336.527 223.342 339.068 221.436L335.468 216.636ZM329.528 218.1H287.904V224.1H329.528V218.1ZM284.904 221.1V250.168H290.904V221.1H284.904ZM287.904 253.168H324.368V247.168H287.904V253.168Z" fill="#5A55D2"/>
</svg>
